<svg height="512" viewBox="0 0 60 59" width="512" xmlns="http://www.w3.org/2000/svg"><g id="Page-1" fill="none" fill-rule="evenodd"><g id="001---Burger-Van" fill-rule="nonzero"><path id="Shape" d="m59 59h-58c-.55228475 0-1-.4477153-1-1s.44771525-1 1-1h58c.5522847 0 1 .4477153 1 1s-.4477153 1-1 1z" fill="#7f8c8d"/><path id="Shape" d="m32.56 10c.68436-.00100071 1.3210897-.35047889 1.6894224-.92726361.3683327-.57678473.4175463-1.30144858.1305776-1.92273639-1.84-4.13-7.58-7.15-14.38-7.15s-12.54 3.02-14.38 7.15c-.28696872.62128781-.23775506 1.34595166.13057764 1.92273639.3683327.57678472 1.00506237.9262629 1.68942236.92726361l-.44 5c0 2.209139 1.790861 4 4 4h18c1.0612728.0013291 2.0794609-.4196715 2.8298947-1.1701053s1.1714344-1.7686219 1.1701053-2.8298947z" fill="#f29c1f"/><path id="Shape" d="m42 28v-7c-.0032948-1.1032019-.8967981-1.9967052-2-2h-37c-1.10320187.0032948-1.9967052.8967981-2 2v30c.0032948 1.1032019.89679813 1.9967052 2 2h34z" fill="#ff5364"/><path id="Shape" d="m33 28h-28l3-5h22z" fill="#fb7b76"/><path id="Shape" d="m30 31.73v8.27h-22v-8.27c.61816808-.356899.99926785-1.0162016 1-1.73 0 1.1045695.8954305 2 2 2s2-.8954305 2-2c0 1.1045695.8954305 2 2 2s2-.8954305 2-2c0 1.1045695.8954305 2 2 2s2-.8954305 2-2c0 1.1045695.8954305 2 2 2s2-.8954305 2-2c0 1.1045695.8954305 2 2 2s2-.8954305 2-2c.0007321.7137984.3818319 1.373101 1 1.73z" fill="#2c3e50"/><path id="Shape" d="m45 53h-8v-23c.0032948-1.1032019.8967981-1.9967052 2-2h8.71c.7840573-.0021667 1.49646.4558064 1.82 1.17l1.29 2.83 2.73 6 .03.07c.2645742.5827133.792758 1.0030286 1.42 1.13l2.39.48c.9353078.1859544 1.609234 1.0063863 1.61 1.96v9.36c-.0032948 1.1032019-.8967981 1.9967052-2 2z" fill="#bdc3c7"/><path id="Shape" d="m53.55 38h-12.55v-5c0-.5522847.4477153-1 1-1h8.82z" fill="#3b97d3"/><path id="Shape" d="m52.84 36.43c-1.57-1.7-4.9-4.21-11.02-4.41.0593483-.011603.1195523-.0182924.18-.02h8.82z" fill="#2980ba"/><circle id="Oval" cx="10" cy="53" fill="#2c3e50" r="5"/><circle id="Oval" cx="10" cy="53" fill="#f5efca" r="2"/><circle id="Oval" cx="50" cy="53" fill="#2c3e50" r="5"/><circle id="Oval" cx="50" cy="53" fill="#f5efca" r="2"/><path id="Shape" d="m46 43h-2c-.5522847 0-1-.4477153-1-1s.4477153-1 1-1h2c.5522847 0 1 .4477153 1 1s-.4477153 1-1 1z" fill="#ecf0f1"/><path id="Shape" d="m9 28v2c0 1.1045695-.8954305 2-2 2s-2-.8954305-2-2v-2z" fill="#e64c3c"/><path id="Shape" d="m13 28v2c0 1.1045695-.8954305 2-2 2s-2-.8954305-2-2v-2z" fill="#fff"/><path id="Shape" d="m17 28v2c0 1.1045695-.8954305 2-2 2s-2-.8954305-2-2v-2z" fill="#e64c3c"/><path id="Shape" d="m21 28v2c0 1.1045695-.8954305 2-2 2s-2-.8954305-2-2v-2z" fill="#fff"/><path id="Shape" d="m25 28v2c0 1.1045695-.8954305 2-2 2s-2-.8954305-2-2v-2z" fill="#e64c3c"/><path id="Shape" d="m29 28v2c0 1.1045695-.8954305 2-2 2s-2-.8954305-2-2v-2z" fill="#fff"/><path id="Shape" d="m33 28v2c0 1.1045695-.8954305 2-2 2s-2-.8954305-2-2v-2z" fill="#e64c3c"/><path id="Shape" d="m25 15h-18.5c-1.38071187 0-2.5-1.1192881-2.5-2.5s1.11928813-2.5 2.5-2.5h13.5z" fill="#603e26"/><path id="Shape" d="m36 12.5c.0021341.6636932-.2605727 1.3008186-.729877 1.770123-.4693044.4693043-1.1064298.7320111-1.770123.729877l-6.5.0000129 5-5.0000129h1.5c1.3807119 0 2.5 1.1192881 2.5 2.5z" fill="#603e26"/><path id="Shape" d="m12.041 7c-.4499154.00060821-.8448417-.29932157-.9650182-.73289027s.0639901-.89401132.4500182-1.12510973c1.2801348-.75278415 2.6673363-1.30645089 4.114-1.642.5314273-.11593697 1.0580636.21414759 1.1853718.74296606.1273081.52881847-.1914054 1.06241318-.7173718 1.20103394-1.248272.29039491-2.4461588.7656398-3.554 1.41-.1546283.09421342-.3319356.14467513-.513.146z" fill="#f5efca"/><path id="Shape" d="m32 10-5.29 5.29c-.3930079.3899779-1.0269921.3899779-1.42 0l-5.29-5.29z" fill="#f0c419"/><path id="Shape" d="m22 41c-.5522847 0-1-.4477153-1-1v-3c0-.5522847.4477153-1 1-1s1 .4477153 1 1v3c0 .5522847-.4477153 1-1 1z" fill="#f0c419"/><path id="Shape" d="m26 41c-.5522847 0-1-.4477153-1-1v-3c0-.5522847.4477153-1 1-1s1 .4477153 1 1v3c0 .5522847-.4477153 1-1 1z" fill="#c03a2b"/><rect id="Rectangle-path" fill="#f29c1f" height="4" rx="1" width="26" x="6" y="40"/></g></g></svg>